<svg width="68" height="68" viewBox="0 0 68 68" fill="none" xmlns="http://www.w3.org/2000/svg">
<path d="M17.4052 24.0723C17.1462 26.7352 19.0985 29.1059 21.7548 29.3648C24.4177 29.6238 26.7884 27.6715 27.0474 25.0152L17.4052 24.0723Z" fill="#FFD632"/>
<path d="M22.2326 29.7501C24.8823 29.7501 27.1533 27.7314 27.4123 25.0419L27.4455 24.6767L17.0795 23.6673L17.0463 24.0325C16.9135 25.4204 17.3252 26.7685 18.2084 27.8442C19.0916 28.92 20.3401 29.5841 21.728 29.7169C21.894 29.7435 22.06 29.7501 22.2326 29.7501ZM26.6354 25.3341C26.2303 27.6052 24.1319 29.2255 21.7944 28.9997C19.4569 28.7739 17.7104 26.7817 17.7502 24.4775L26.6354 25.3341ZM39.2592 20.7786L45.528 17.7306C46.9557 17.04 47.56 15.32 46.8694 13.8857C46.1787 12.4579 44.4588 11.8536 43.0244 12.5376L38.7877 14.6028C37.7252 15.1208 36.4369 14.6692 35.919 13.6067L35.2615 13.9255C35.9522 15.3532 37.6787 15.9509 39.1065 15.2603L43.3432 13.195C43.8612 12.9493 44.4389 12.9161 44.9834 13.1021C45.528 13.2946 45.9596 13.6798 46.2119 14.1978C46.7233 15.2669 46.2783 16.5485 45.2092 17.0665L38.9405 20.1146L39.2592 20.7786Z" fill="#333336"/>
<path d="M30.4472 27.3793V21.1304L36.6429 12.7234C37.0081 12.2254 37.0413 11.5613 36.7159 11.0367C35.6003 9.23044 33.9468 8.40036 32.9175 8.04176C32.3796 7.84919 31.7753 7.98864 31.3636 8.39372L14.0847 25.3406C13.9519 25.4668 14.0117 25.6925 14.191 25.739C15.8777 26.184 22.671 27.8242 30.3144 27.5187C30.3874 27.5121 30.4472 27.4523 30.4472 27.3793Z" fill="#68A240"/>
<path d="M28.4088 27.9171C29.0396 27.9171 29.6838 27.9039 30.3279 27.8773C30.6002 27.864 30.8061 27.6449 30.8061 27.3793V21.25L36.9354 12.9359C37.3936 12.3183 37.4268 11.4949 37.0217 10.8375C35.8795 8.99136 34.226 8.10816 33.0307 7.6898C32.3666 7.45738 31.6096 7.63004 31.1049 8.12144L13.826 25.0683C13.6732 25.2211 13.6068 25.4468 13.6666 25.6527C13.7197 25.8586 13.8857 26.0246 14.0916 26.0777C15.8248 26.5425 21.6021 27.9171 28.4088 27.9171ZM30.0822 27.1601C22.9236 27.4058 16.6018 25.9781 14.5033 25.4402L31.6229 8.64605C31.935 8.34058 32.3932 8.24097 32.7982 8.38043C33.874 8.75894 35.3814 9.56246 36.4041 11.2226C36.6498 11.6211 36.6299 12.1191 36.351 12.5043L30.0822 21.0109V27.1601ZM52.0162 44.8043L52.667 44.4722L40.84 21.1171L39.3127 21.6019L39.5318 22.2992L40.4682 22.0003L52.0162 44.8043Z" fill="#333336"/>
<path d="M32.0344 18.9524L33.8008 16.595L38.1637 19.8622C38.2434 19.9219 38.3164 19.9883 38.3828 20.068C38.602 20.2208 38.7813 20.4266 38.8941 20.6922L45.5547 46.3583L42.8586 47.5403L36.3242 22.1598L32.0344 18.9524Z" fill="#D5D9CF"/>
<path d="M42.6061 48.0448L45.9795 46.5706L39.2459 20.5659L39.2326 20.5394C39.0998 20.2405 38.8939 19.9815 38.6283 19.789C38.5553 19.7093 38.4689 19.6362 38.3826 19.5698L33.7275 16.0835L31.5295 19.0253L36.0053 22.3722L42.6061 48.0448ZM45.1229 46.1456L43.1041 47.0288L36.6428 21.9472L32.5455 18.8792L33.8736 17.1062L37.9443 20.1542C38.0041 20.2007 38.0639 20.2538 38.1104 20.3069L38.1369 20.3401L38.1768 20.3667C38.3361 20.4796 38.4689 20.6323 38.5486 20.8116L45.1229 46.1456Z" fill="#333336"/>
<path d="M53.8623 44.127C54.201 44.9637 53.7959 45.9133 52.9592 46.252L45.7076 49.1805C44.9439 49.4926 44.4392 50.2364 44.4392 51.0598V56.2993H41.1721V49.1606C41.1721 48.1712 41.7764 47.2747 42.6928 46.9028L51.7307 43.2239C52.574 42.8852 53.5236 43.2903 53.8623 44.127Z" fill="#D5D9CF"/>
<path d="M40.813 56.6643H44.8107V51.0597C44.8107 50.3757 45.2158 49.7714 45.8533 49.519L53.1048 46.5905C53.5962 46.3913 53.988 46.0128 54.1939 45.5214C54.3998 45.03 54.4064 44.4854 54.2072 43.994C54.008 43.496 53.6228 43.1108 53.1314 42.905C52.64 42.6991 52.0955 42.6925 51.6041 42.8917L42.5662 46.5706C41.5037 47.0022 40.8197 48.0249 40.8197 49.1671V56.6643H40.813ZM44.0736 55.9339H41.5369V49.1604C41.5369 48.3104 42.0416 47.5601 42.8318 47.2413L51.8763 43.5624C52.1884 43.4362 52.5337 43.4362 52.8459 43.569C53.158 43.7018 53.397 43.9476 53.5232 44.2597C53.6494 44.5718 53.6494 44.9171 53.5166 45.2292C53.3837 45.5413 53.138 45.7804 52.8259 45.9065L45.5744 48.8351C44.6646 49.2003 44.0802 50.0702 44.0802 51.053V55.9339H44.0736Z" fill="#333336"/>
<path d="M23.4015 60.0444H50.203C50.6679 60.0444 51.0464 59.6659 51.0464 59.2011V57.1358C51.0464 56.671 50.6679 56.2925 50.203 56.2925H23.4015C22.9366 56.2925 22.5581 56.671 22.5581 57.1358V59.2011C22.5581 59.6726 22.9366 60.0444 23.4015 60.0444Z" fill="#68A240"/>
<path d="M23.4015 60.4097H50.203C50.8671 60.4097 51.4116 59.8651 51.4116 59.2011V57.1358C51.4116 56.4718 50.8671 55.9272 50.203 55.9272H23.4015C22.7374 55.9272 22.1929 56.4718 22.1929 57.1358V59.2011C22.1929 59.8718 22.7308 60.4097 23.4015 60.4097ZM50.203 56.6644C50.4687 56.6644 50.6812 56.8769 50.6812 57.1425V59.2077C50.6812 59.4733 50.4687 59.6858 50.203 59.6858H23.4015C23.1358 59.6858 22.9233 59.4733 22.9233 59.2077V57.1425C22.9233 56.8769 23.1358 56.6644 23.4015 56.6644H50.203Z" fill="#333336"/>
<path d="M39.3125 21.4226C39.3125 21.9157 39.1166 22.3887 38.7679 22.7374C38.4192 23.0861 37.9463 23.282 37.4531 23.282C36.96 23.282 36.487 23.0861 36.1383 22.7374C35.7896 22.3887 35.5938 21.9157 35.5938 21.4226C35.5938 20.9295 35.7896 20.4565 36.1383 20.1078C36.487 19.7591 36.96 19.5632 37.4531 19.5632C37.9463 19.5632 38.4192 19.7591 38.7679 20.1078C39.1166 20.4565 39.3125 20.9295 39.3125 21.4226Z" fill="#68A240"/>
<path d="M37.4531 23.6472C38.6816 23.6472 39.6777 22.6511 39.6777 21.4226C39.6777 20.1941 38.6816 19.198 37.4531 19.198C36.2246 19.198 35.2285 20.1941 35.2285 21.4226C35.2285 22.6511 36.2246 23.6472 37.4531 23.6472ZM37.4531 19.9285C38.2766 19.9285 38.9473 20.5992 38.9473 21.4226C38.9473 22.246 38.2766 22.9167 37.4531 22.9167C36.6297 22.9167 35.959 22.246 35.959 21.4226C35.959 20.5992 36.6297 19.9285 37.4531 19.9285Z" fill="#333336"/>
<path d="M30.5736 53.7758V54.307H34.7041V53.7758C34.7041 53.2512 34.4318 52.7598 33.9803 52.5008C33.6748 52.3215 33.2432 52.1953 32.6389 52.1953C31.9947 52.1953 31.5498 52.3414 31.2443 52.534C30.826 52.7996 30.5736 53.2777 30.5736 53.7758Z" fill="#FFD632"/>
<path d="M30.2084 54.6723H35.0693V53.7758C35.0693 53.1184 34.724 52.5075 34.1596 52.1821C33.7479 51.943 33.2365 51.8235 32.6389 51.8235C32.008 51.8235 31.4701 51.9563 31.0518 52.2219C30.5338 52.5473 30.2084 53.145 30.2084 53.7758V54.6723ZM34.3455 53.9418H30.9455V53.7758C30.9455 53.3907 31.1381 53.0321 31.4436 52.8395C31.749 52.6469 32.1475 52.554 32.6455 52.554C33.117 52.554 33.5088 52.6403 33.801 52.8129C34.133 53.0055 34.3455 53.3774 34.3455 53.7758V53.9418Z" fill="#333336"/>
<path d="M29.3316 56.2993H35.9922V54.7985C35.9922 54.5263 35.773 54.3071 35.5008 54.3071H29.823C29.5508 54.3071 29.3316 54.5263 29.3316 54.7985V56.2993Z" fill="#FFD632"/>
<path d="M28.9664 56.6646H36.3574V54.7985C36.3574 54.3271 35.9723 53.9419 35.5008 53.9419H29.823C29.3516 53.9419 28.9664 54.3271 28.9664 54.7985V56.6646ZM35.627 55.9341H29.6969V54.7985C29.6969 54.7255 29.7566 54.6724 29.823 54.6724H35.5008C35.5738 54.6724 35.627 54.7321 35.627 54.7985V55.9341Z" fill="#333336"/>
<path d="M34.5977 54.3071H34.0664V56.2993H34.5977V54.3071ZM32.9242 54.3071H32.393V56.2993H32.9242V54.3071ZM31.2641 54.3071H30.7328V56.2993H31.2641V54.3071Z" fill="#333336"/>
</svg>
