<svg width="116" height="42" viewBox="0 0 116 42" fill="none" xmlns="http://www.w3.org/2000/svg">
<path d="M0 41.9856V22.3265H3.19862L3.62701 29.7374L3.30572 28.2379C3.46279 27.1205 3.76266 26.0824 4.20533 25.1164C4.65514 24.1576 5.312 23.379 6.17591 22.7878C7.04696 22.1967 8.17505 21.9011 9.56731 21.9011C11.4094 21.9011 12.8373 22.4778 13.8369 23.6241C14.8365 24.7703 15.3362 26.5077 15.3362 28.8218V41.9784H11.5664V30.1122C11.5664 28.9948 11.4522 28.0937 11.2237 27.4088C10.9953 26.724 10.6311 26.2266 10.1171 25.9094C9.603 25.5994 8.91759 25.4408 8.06081 25.4408C7.09694 25.4408 6.23303 25.7147 5.46907 26.2626C4.70512 26.8105 4.13393 27.4881 3.75552 28.2884V41.9856H0Z" fill="white"/>
<path d="M20.1889 19.2987C19.4749 19.2987 18.868 19.0464 18.3753 18.549C17.8827 18.0515 17.6328 17.4027 17.6328 16.6097C17.6328 15.8311 17.8827 15.1895 18.3825 14.6993C18.8823 14.2091 19.482 13.964 20.1889 13.964C20.8886 13.964 21.4954 14.2091 21.9952 14.6993C22.495 15.1895 22.7449 15.8311 22.7449 16.6097C22.7449 17.4027 22.495 18.0515 21.9952 18.549C21.4883 19.0464 20.8886 19.2987 20.1889 19.2987ZM18.2611 41.9856V22.3625H22.0809L22.0309 41.9928H18.2611V41.9856Z" fill="white"/>
<path d="M23.9375 25.4264V22.0382H35.454V25.4264H23.9375ZM31.4343 41.9856C29.8992 41.9856 28.714 41.5891 27.8787 40.7961C27.0433 40.0031 26.6292 38.8785 26.6292 37.4223V27.0989C26.6292 26.7168 26.7077 26.3636 26.8577 26.0464C27.0147 25.7292 27.2361 25.5201 27.5359 25.4264L26.6221 22.8095V22.2688L27.5145 16.3718H30.3562V36.5932C30.3562 37.3142 30.5204 37.8044 30.8488 38.0711C31.1772 38.3378 31.777 38.4676 32.6409 38.4676C33.1978 38.4676 33.7119 38.4676 34.1688 38.4676C34.6258 38.4676 35.0613 38.4604 35.4611 38.446V41.7477C34.8042 41.8559 34.126 41.9207 33.4191 41.9424C32.7123 41.9784 32.0483 41.9856 31.4343 41.9856Z" fill="white"/>
<path d="M37.4453 41.9856V13.964H41.1937V22.3265L40.9081 27.9352L41.0652 29.5211L40.8153 28.2379C40.9581 27.1566 41.2437 26.1329 41.6649 25.1669C42.0862 24.2009 42.7287 23.4151 43.5855 22.8167C44.4423 22.2184 45.5775 21.9156 46.9983 21.9156C48.8547 21.9156 50.2826 22.4851 51.2751 23.6313C52.2675 24.7704 52.7673 26.5078 52.7673 28.8435V42H48.9832V30.1123C48.9832 28.4758 48.7333 27.2935 48.2264 26.551C47.7195 25.8157 46.8056 25.4408 45.4847 25.4408C44.5208 25.4408 43.6712 25.7436 42.9287 26.3636C42.1933 26.9763 41.6149 27.6973 41.1937 28.5263V41.9928H37.4453V41.9856Z" fill="white"/>
<path d="M60.9719 41.9856C59.2941 41.9856 57.9375 41.3945 56.9094 40.2194C55.8812 39.0443 55.3672 37.379 55.3672 35.2235V21.9084H59.137V34.2575C59.137 35.1947 59.2441 35.9733 59.4654 36.6005C59.6868 37.2276 60.0366 37.689 60.5292 37.999C61.0147 38.3018 61.6502 38.4604 62.4213 38.4604C63.3994 38.4604 64.2633 38.1865 65.0202 37.6386C65.777 37.0907 66.341 36.4202 66.7266 35.6272V21.9084H70.475V41.5891H67.2763L66.8479 34.3801L67.1907 35.6633C67.0336 36.7663 66.7337 37.8044 66.291 38.7632C65.8412 39.722 65.1915 40.5006 64.3347 41.0989C63.4708 41.6901 62.357 41.9856 60.9719 41.9856Z" fill="white"/>
<path d="M73.3112 41.7693L73.2969 13.7261H77.0453V22.5211L77.0667 37.516L77.388 38.1648L77.0453 38.7055L76.881 41.7693H73.3112ZM82.2502 41.9856C80.9436 41.9856 79.9012 41.7621 79.1372 41.3079C78.3661 40.8538 77.8092 40.3347 77.4522 39.7508C77.0952 39.1596 76.8739 38.6622 76.7882 38.2513L75.8601 37.5809L77.0167 37.1483C77.0881 37.4223 77.2809 37.7106 77.595 38.0062C77.9092 38.3018 78.359 38.5469 78.9373 38.7415C79.5156 38.9362 80.2153 39.0371 81.0364 39.0371C82.4501 39.0371 83.6281 38.4748 84.5563 37.3574C85.4845 36.24 85.9486 34.4233 85.9486 31.9145C85.9486 29.6221 85.5202 27.8919 84.6563 26.7384C83.7923 25.585 82.7071 25.0083 81.4005 25.0083C80.4581 25.0083 79.6798 25.1452 79.0587 25.4192C78.4375 25.6931 77.9663 26.0175 77.645 26.3924C77.3237 26.7673 77.1167 27.1061 77.0167 27.4161L76.7311 27.0556L77.031 26.4933C77.0667 25.6427 77.288 24.8497 77.695 24.1215C78.1019 23.3934 78.7088 22.8095 79.5156 22.3625C80.3224 21.9156 81.3505 21.6921 82.5857 21.6921C84.1351 21.6921 85.4416 22.103 86.5126 22.9393C87.5836 23.7683 88.3975 24.9217 88.9615 26.3924C89.5184 27.863 89.804 29.5716 89.804 31.518C89.804 33.2698 89.5899 34.8054 89.1543 36.1174C88.7188 37.4295 88.1405 38.518 87.4122 39.3831C86.684 40.2482 85.8772 40.897 84.9847 41.3224C84.0922 41.7765 83.1783 41.9856 82.2502 41.9856Z" fill="white"/>
<path d="M111.031 2.63849L102.984 13.8197C105.205 10.7343 105.976 7.0216 105.426 3.5252L111.031 2.63849Z" fill="#62CF3A"/>
<path d="M116.007 9.552L102.984 13.827C106.583 12.6447 109.36 10.1071 110.952 6.94952L116.007 9.552Z" fill="#62CF3A"/>
<path d="M116.007 18.0947L102.984 13.8198C106.583 15.0021 110.31 14.5911 113.437 12.9907L116.007 18.0947Z" fill="#62CF3A"/>
<path d="M111.031 25.0082L102.984 13.827C105.205 16.9124 108.461 18.8012 111.923 19.3563L111.031 25.0082Z" fill="#62CF3A"/>
<path d="M102.984 27.6467V13.8198C102.984 17.6334 104.519 21.0937 106.997 23.5953L102.984 27.6467Z" fill="#62CF3A"/>
<path d="M94.9375 25.0082L102.984 13.827C100.764 16.9124 99.9925 20.6251 100.542 24.1215L94.9375 25.0082Z" fill="#62CF3A"/>
<path d="M89.9609 18.0947L102.984 13.8198C99.3855 15.002 96.6081 17.5396 95.0159 20.6972L89.9609 18.0947Z" fill="#62CF3A"/>
<path d="M89.9609 9.552L102.984 13.827C99.3855 12.6447 95.6585 13.0556 92.5313 14.656L89.9609 9.552Z" fill="#62CF3A"/>
<path d="M94.9315 2.63849L102.978 13.8197C100.758 10.7343 97.5019 8.84549 94.0391 8.29039L94.9315 2.63849Z" fill="#62CF3A"/>
<path d="M102.973 0V13.8198C102.973 10.0062 101.438 6.54583 98.9609 4.04428L102.973 0Z" fill="#62CF3A"/>
</svg>
