<svg width="36" height="35" viewBox="0 0 36 35" fill="none" xmlns="http://www.w3.org/2000/svg">
<path d="M4.03906 20.6914L17.418 7.3125C18.1602 6.57031 18.1602 5.35547 17.418 4.61328L17.0547 4.25C16.3125 3.50781 15.0977 3.50781 14.3555 4.25L0.976564 17.6289C0.234377 18.3711 0.234377 19.5859 0.976564 20.3281L1.33984 20.6914C2.08203 21.4336 3.29688 21.4336 4.03906 20.6914Z" fill="#FFB89A"/>
<path d="M30.5547 22.4062C30.7656 22.4062 30.9766 22.3516 31.168 22.2305C31.7188 21.8906 31.8906 21.168 31.5508 20.6172C31.3984 20.3672 31.3047 19.9844 31.3047 19.5898C31.3047 18.9375 31.5352 18.543 31.6445 18.4375C32.2539 18.3945 32.7344 17.8867 32.7344 17.2695C32.7344 16.6211 32.2109 16.0977 31.5625 16.0977C30.7695 16.0977 30.0391 16.5469 29.5508 17.3359C29.168 17.957 28.957 18.7578 28.957 19.5938C28.957 20.4297 29.168 21.2305 29.5508 21.8516C29.7773 22.207 30.1641 22.4023 30.5547 22.4062Z" fill="#4C8337"/>
<path d="M15.4648 30.7031H17.8086C17.8086 30.6641 17.8828 30.5313 18.1016 30.3906C18.4453 30.168 18.9414 30.043 19.4648 30.043C20.2188 30.043 20.793 30.3008 21.0313 30.5586L22.7461 28.9609C22.0117 28.1719 20.7812 27.6992 19.4609 27.6992C17.2227 27.6953 15.4648 29.0156 15.4648 30.7031Z" fill="#4C8337"/>
<path d="M29.3593 21.8751C29.664 21.8751 29.9648 21.7579 30.1953 21.5235C30.6484 21.0626 30.6406 20.3204 30.1796 19.8672L20.7421 10.6172C20.2812 10.1641 19.539 10.1719 19.0859 10.6329C18.6328 11.0938 18.6406 11.836 19.1015 12.2891L28.539 21.5391C28.7695 21.7618 29.0663 21.8751 29.3593 21.8751ZM20.7343 29.1641C21.0351 29.1641 21.3359 29.0508 21.5624 28.8204C22.0195 28.3633 22.0195 27.6211 21.5624 27.1641L14.0663 19.6719C13.6093 19.2149 12.8671 19.2149 12.4101 19.6719C11.9531 20.129 11.9531 20.8712 12.4101 21.3282L19.9062 28.8204C20.1328 29.0508 20.4335 29.1641 20.7343 29.1641ZM6.12104 21.3047C6.42572 21.3047 6.7265 21.1876 6.95697 20.9532L8.1601 19.7305C8.61322 19.2696 8.60541 18.5274 8.14447 18.0743C7.68354 17.6212 6.94135 17.629 6.48822 18.0899L5.2851 19.3126C4.83197 19.7735 4.83979 20.5157 5.30072 20.9688C5.52729 21.1915 5.82416 21.3047 6.12104 21.3047ZM10.2617 17.0899C10.5663 17.0899 10.8671 16.9727 11.0976 16.7383L21.332 6.31256C21.7851 5.85162 21.7773 5.10943 21.3163 4.65631C20.8554 4.20318 20.1132 4.21099 19.6601 4.67193L9.42572 15.0977C8.9726 15.5587 8.98041 16.3008 9.44135 16.754C9.66791 16.9766 9.96479 17.0899 10.2617 17.0899Z" fill="#4C8337"/>
<path d="M16.9844 9.60549C17.2969 9.60549 17.6055 9.48049 17.8359 9.2383C18.2812 8.76564 18.2578 8.02736 17.789 7.58205L16.3594 6.23439C15.8867 5.78908 15.1484 5.81252 14.7031 6.28127C14.2578 6.75392 14.2812 7.49221 14.75 7.93752L16.1797 9.28517C16.4062 9.50002 16.6953 9.60549 16.9844 9.60549ZM9.78904 17.8008C10.0898 17.8008 10.3906 17.6875 10.6172 17.4571C11.0742 17 11.0742 16.2578 10.6172 15.8008L8.67576 13.8594C8.21873 13.4024 7.47655 13.4024 7.01952 13.8594C6.56248 14.3164 6.56248 15.0586 7.01952 15.5156L8.96092 17.4571C9.18748 17.6875 9.48826 17.8008 9.78904 17.8008Z" fill="#4C8337"/>
<path d="M21.918 30.9022C22.2188 30.9022 22.5195 30.789 22.7461 30.5585C23.2031 30.1015 23.2031 29.3593 22.7461 28.9022C22.4922 28.6483 22.1094 28.0468 22.3555 26.8476C22.5703 25.7968 23.2227 24.6679 24.1484 23.7421C25.0703 22.8202 26.2031 22.164 27.2539 21.9491C28.4531 21.703 29.0547 22.0897 29.3086 22.3397C29.7656 22.7968 30.5078 22.7968 30.9648 22.3397C31.4219 21.8827 31.4219 21.1405 30.9648 20.6835C29.9688 19.6874 28.4453 19.3124 26.7812 19.6522C25.2734 19.9608 23.75 20.8241 22.4922 22.0819C21.2344 23.3397 20.3711 24.8632 20.0625 26.371C19.7227 28.0312 20.0977 29.5585 21.0938 30.5546C21.3203 30.789 21.6211 30.9022 21.918 30.9022Z" fill="#4C8337"/>
<path d="M2.66406 12.5898L13.2344 2.01953C14.1367 1.11719 15.3281 0.664062 16.5156 0.664062C17.707 0.664062 18.8945 1.11719 19.7969 2.01953L34.2461 16.4648C34.3867 16.6055 34.6328 16.8242 34.5156 16.9766L35.4336 34.0352L17.3828 33.875L2.66016 19.1523C0.859375 17.3516 0.859375 14.3945 2.66406 12.5898ZM4.32031 17.5L18.3633 31.543L30.1328 31.6445L32.7383 28.9336L31.9648 17.5L18.1406 3.67578C17.7109 3.24609 17.1328 3.00781 16.5156 3.00781C15.8984 3.00781 15.3203 3.24609 14.8906 3.67578L4.32031 14.25C3.89062 14.6797 3.65234 15.2578 3.65234 15.875C3.65234 16.4922 3.89062 17.0664 4.32031 17.5Z" fill="#45484C"/>
</svg>
