<svg width="16" height="20" viewBox="0 0 16 20" fill="none" xmlns="http://www.w3.org/2000/svg">
<path d="M12 0.5C12 0.367392 12.0527 0.240215 12.1464 0.146447C12.2402 0.0526785 12.3674 0 12.5 0C12.6326 0 12.7598 0.0526785 12.8536 0.146447C12.9473 0.240215 13 0.367392 13 0.5V3H15.5C15.6326 3 15.7598 3.05268 15.8536 3.14645C15.9473 3.24021 16 3.36739 16 3.5C16 3.63261 15.9473 3.75979 15.8536 3.85355C15.7598 3.94732 15.6326 4 15.5 4H13V6.5C13 6.63261 12.9473 6.75979 12.8536 6.85355C12.7598 6.94732 12.6326 7 12.5 7C12.3674 7 12.2402 6.94732 12.1464 6.85355C12.0527 6.75979 12 6.63261 12 6.5V4H9.5C9.36739 4 9.24021 3.94732 9.14645 3.85355C9.05268 3.75979 9 3.63261 9 3.5C9 3.36739 9.05268 3.24021 9.14645 3.14645C9.24021 3.05268 9.36739 3 9.5 3H12V0.5ZM1 5C1 4.73478 1.10536 4.48043 1.29289 4.29289C1.48043 4.10536 1.73478 4 2 4H5.5C5.63261 4 5.75979 3.94732 5.85355 3.85355C5.94732 3.75979 6 3.63261 6 3.5C6 3.36739 5.94732 3.24021 5.85355 3.14645C5.75979 3.05268 5.63261 3 5.5 3H2C1.46957 3 0.960859 3.21071 0.585786 3.58579C0.210714 3.96086 0 4.46957 0 5V19C0 19.0929 0.0258573 19.1839 0.0746746 19.2629C0.123492 19.3419 0.193341 19.4057 0.276393 19.4472C0.359446 19.4887 0.452422 19.5063 0.544903 19.498C0.637384 19.4896 0.725715 19.4557 0.8 19.4L6.5 15L12.2 19.4C12.2743 19.4557 12.3626 19.4896 12.4551 19.498C12.5476 19.5063 12.6406 19.4887 12.7236 19.4472C12.8067 19.4057 12.8765 19.3419 12.9253 19.2629C12.9741 19.1839 13 19.0929 13 19V10.5C13 10.3674 12.9473 10.2402 12.8536 10.1464C12.7598 10.0527 12.6326 10 12.5 10C12.3674 10 12.2402 10.0527 12.1464 10.1464C12.0527 10.2402 12 10.3674 12 10.5V17.98L6.8 13.98C6.71345 13.9151 6.60819 13.88 6.5 13.88C6.39181 13.88 6.28655 13.9151 6.2 13.98L1 17.98V5Z" fill="#6B6B6B"/>
</svg>
