<svg width="24" height="24" viewBox="0 0 24 24" fill="none" xmlns="http://www.w3.org/2000/svg">
<path d="M5.58795 7.69458H0.769909C0.556077 7.69458 0.382812 7.86792 0.382812 8.08168V23.56C0.382812 23.7738 0.556077 23.9471 0.769909 23.9471H5.58795C5.80178 23.9471 5.97504 23.7738 5.97504 23.56V8.08168C5.97504 7.86792 5.80178 7.69458 5.58795 7.69458Z" fill="white"/>
<path d="M3.1793 0C1.42622 0 0 1.42467 0 3.17582C0 4.92774 1.42622 6.35295 3.1793 6.35295C4.93099 6.35295 6.35605 4.92766 6.35605 3.17582C6.35613 1.42467 4.93099 0 3.1793 0Z" fill="white"/>
<path d="M17.8403 7.30981C15.9052 7.30981 14.4747 8.14168 13.6071 9.0869V8.08161C13.6071 7.86785 13.4338 7.69451 13.22 7.69451H8.60585C8.39201 7.69451 8.21875 7.86785 8.21875 8.08161V23.5599C8.21875 23.7737 8.39201 23.947 8.60585 23.947H13.4134C13.6272 23.947 13.8005 23.7737 13.8005 23.5599V15.9017C13.8005 13.3211 14.5014 12.3157 16.3003 12.3157C18.2595 12.3157 18.4152 13.9275 18.4152 16.0345V23.56C18.4152 23.7738 18.5885 23.9471 18.8023 23.9471H23.6116C23.8254 23.9471 23.9987 23.7738 23.9987 23.56V15.0699C23.9987 11.2326 23.267 7.30981 17.8403 7.30981Z" fill="white"/>
</svg>
